<?xml version="1.0" encoding="utf-8"?>
<!-- Generator: Adobe Illustrator 16.0.3, SVG Export Plug-In . SVG Version: 6.00 Build 0)  -->
<!DOCTYPE svg PUBLIC "-//W3C//DTD SVG 1.1//EN" "http://www.w3.org/Graphics/SVG/1.1/DTD/svg11.dtd">
<svg version="1.1" id="Artwork" xmlns="http://www.w3.org/2000/svg" xmlns:xlink="http://www.w3.org/1999/xlink" x="0px" y="0px"
	 width="504px" height="504px" viewBox="0 0 504 504" enable-background="new 0 0 504 504" xml:space="preserve">
<g id="Black_1_">
	<g id="Hog_Logo_4_">
		<path id="right_ear_fill_4_" fill="#FAFAFA" d="M288.175,124.535c0,0,2.782-15.028,14.748-22.003
			c11.966-6.978,23.053-7.761,23.053-7.761s4.16-8.043,12.206-9.787c8.045-1.743,13.058-1.868,20.068-4.019
			c7.014-2.15,10.768-6.171,10.768-6.171s-0.938,7.105-2.813,10.592c-1.877,3.486-5.096,23.194-7.777,27.887
			c-2.681,4.691-6.654,8.153-6.654,8.153s1.966,8.336-1.79,17.319c-3.755,8.982-14.57,28.154-24.717,27.485
			c0,0-7.717-3.622-18.247-16.223C296.486,137.407,288.175,124.535,288.175,124.535z"/>
		<path id="head_fill_4_" fill="#FAFAFA" d="M160.035,242.455c0,0-2.66-7.697,3.734-17.339c6.521-9.833,12.109-8.44,12.109-8.44
			s-7.112-7.751-4.848-20.91c2.263-13.158,7.08-16.205,7.08-16.205s-6.682-6.489-5.021-16.212
			c1.662-9.724,35.316-26.78,47.892-32.524c12.575-5.742,29.812-10.975,44.342-10.397c17.173,0.685,26.389,3.951,36.864,12.656
			c10.477,8.705,14.398,16.387,17.173,19.936c2.767,3.552,6.091,11.122,5.169,18.508c-0.924,7.386-3.499,17.629-0.942,21.975
			c2.555,4.345,4.662,5.378,4.662,5.378s6.62,3.486,5.882,16.596c-0.737,13.111,0.187,33.424,0.187,33.424s3.794-0.531,5.633,1.384
			c1.892,1.973,1.835,6.469,2.368,11.773c1.172,11.658-6.198,23.59-17.418,26.176c-12.465,2.871-11.635-2.772-33.979,2.49
			c-22.344,5.264-21.694,16.896-42.933,17.45c-21.236,0.554-23.637-8.313-34.438-11.354c-10.803-3.047-17.918,1.041-29.154-1.662
			c-15.449-3.719-29.656-18.918-30.969-37.073C152.491,245.09,160.035,242.455,160.035,242.455z"/>
		<path id="left_ear_fill_4_" fill="#FAFAFA" d="M174.215,157.493c0,0-14.773-6.093-23.174-15.881
			c-8.403-9.786-7.386-23.914-7.293-30.276c0.092-6.364-6.002-17.827-7.757-21.059c-1.755-3.232-2.862-10.986-2.862-10.986
			s6.74,3.599,13.665,5.909c6.924,2.308,13.019,0.554,20.592,2.03c7.57,1.477,10.585,8.764,10.585,8.764s6.771-2.208,17.112,3.147
			c10.341,5.354,12,15.059,12,15.059s5.551,2.039,9.442,5.997c3.891,3.959,4.042,13.393,4.042,13.393s4.247,9.049-14.402,19.43
			C187.511,163.403,174.215,157.493,174.215,157.493z"/>
		<g id="Left_Ear_8_">
			<g>
				<path d="M220.539,125.416c-1.468-3.734-3.39-6.909-8.939-10.074c-1.096-0.625-2.489-1.18-3.972-1.663
					c-0.599-2.698-3.543-12.574-15.132-16.382c-5.33-1.753-10.008-2.255-13.736-2.232c-0.864-1.762-4.198-7.562-11.163-8.92
					c-3.455-0.674-6.574-0.696-9.592-0.716c-3.686-0.025-7.168-0.049-10.86-1.28c-6.752-2.251-13.427-5.8-13.493-5.834l-1.928-1.031
					l0.31,2.163c0.046,0.325,1.157,7.993,2.985,11.359c4.901,9.028,7.68,16.504,7.62,20.514c-0.005,0.468-0.018,0.978-0.029,1.525
					c-0.164,7.026-0.466,20.105,7.591,29.49c8.477,9.876,22.979,15.932,23.593,16.183l0.844-2.049
					c-0.145-0.058-14.632-6.111-22.755-15.578c-7.502-8.739-7.215-21.265-7.06-27.995c0.012-0.554,0.025-1.07,0.033-1.543
					c0.085-5.993-4.906-16.107-7.89-21.603c-1.089-2.006-1.935-5.999-2.384-8.476c2.522,1.248,7.119,3.396,11.863,4.976
					c4.026,1.344,7.68,1.367,11.545,1.395c2.919,0.021,5.933,0.041,9.183,0.673c5.025,0.98,7.904,4.816,9.104,6.838
					c-4.205,0.304-6.677,1.216-6.677,1.216s0,1.292,1.292,1.662c1.292,0.369,7.868-3.284,21.235,1.477
					c10.04,3.574,12.617,10.564,13.267,13.506c-4.097-1.106-8.129-1.681-8.129-1.681s-0.002,1.914,1.047,2.44
					c1.049,0.523,5.887-0.393,12.282,3.46c6.051,3.648,6.813,6.772,8.033,10.064c1.167,3.161,1.297,4.986,1.297,4.986l1.624-1.581
					C221.549,130.707,222.02,129.184,220.539,125.416z M152.614,97.892L152.614,97.892L152.614,97.892L152.614,97.892z
					 M198.942,141.578c-15.244-7.542-12.643-19.508-12.526-20.012l0.212-0.88l-0.876-0.219
					c-11.007-2.765-10.357-10.766-10.328-11.103l0.113-1.049l-1.058,0.041c-20.175,0.823-21.8-9.957-21.865-10.463l0,0
					c0-0.001,0-0.004,0-0.005l-0.03-0.016c-0.166-0.113-1.938-1.318-2.258-1.281c-0.335,0.039,0.472,1.508,0.472,1.508
					c0.06,0.523,1.7,12.631,22.81,12.115c0.152,2.551,1.481,9.11,10.891,11.81c-0.369,3.175-0.518,14.194,13.634,21.194
					c0,0,1.249-0.016,1.504-0.532C199.892,142.169,198.942,141.578,198.942,141.578z"/>
			</g>
		</g>
		<g id="Right_Ear_8_">
			<g>
				<path d="M370.21,74.823l-0.476-2.372l-1.486,1.913c-0.034,0.042-3.477,4.41-9.267,6.369c-2.504,0.848-3.945,0.892-5.946,0.954
					c-2.532,0.079-5.999,0.188-13.273,2.071c-9.394,2.434-14.292,9.372-14.497,9.666l0.382,0.264
					c-1.75-0.068-4.142,0.132-7.388,0.934c-9.122,2.251-15.756,5.921-22.743,13.266c-6.988,7.342-7.935,17.12-7.935,17.12
					l1.474,0.619c0,0,1.202-8.228,8.19-15.571c6.991-7.343,12.575-11.532,21.706-13.74c7.354-1.777,10.052,0,10.052,0l0.849-1.494
					c0,0-0.576-0.558-2.166-0.897c1.491-1.783,5.78-6.248,12.633-8.021c7.033-1.821,10.223-1.922,12.784-2.001
					c2.109-0.064,3.775-0.115,6.591-1.069c3.601-1.217,6.345-3.23,8.096-4.805c-0.151,0.734-0.38,1.621-0.729,2.666
					c-0.61,1.835-1.356,3.185-2.08,4.487c-0.88,1.591-1.715,3.093-2.19,5.224c-0.212,0.935-0.42,2.227-0.685,3.864
					c-0.785,4.882-1.979,12.263-4.609,18.278c-4.015,9.158-15.269,13.868-15.381,13.914l0.841,2.051
					c0.282-0.116,4.193-1.75,8.315-4.976c0.274,4.173-0.014,14.573-7.559,26.919c-9.57,15.663-18.646,14.541-18.739,14.525
					l-0.347,2.187c0.065,0.013,0.381,0.059,0.901,0.059c2.756,0,11.313-1.271,20.074-15.616c9.112-14.909,8.144-26.919,7.729-29.819
					c2.42-2.22,4.718-4.997,6.188-8.354c2.749-6.271,3.968-13.822,4.771-18.815c0.249-1.534,0.462-2.86,0.657-3.729
					c0.41-1.822,1.134-3.127,1.967-4.638c0.738-1.326,1.57-2.83,2.246-4.858C370.596,77.083,370.255,75.042,370.21,74.823z"/>
			</g>
		</g>
		<g>
			<path id="Head_x5F_top_4_" d="M264.619,121.798c31.699-0.694,45.883,20.584,48.617,24.976c2.73,4.391,10.494,8.816,10.133,20.892
				c-0.367,12.075-2.133,12.153-1.73,22.016c0.198,4.814,3.02,7.653,3.02,7.653l1.854,0.514c0,0-2.648-4.829-2.636-9.648
				c0.013-4.597,1.797-10.131,2.164-22.206c0.368-12.075-8.416-16.788-11.176-21.18c-2.757-4.39-17.046-25.664-49.044-25.637
				c-33.301,0.031-53.784,14.658-54.317,16.58C210.595,139.027,232.383,122.502,264.619,121.798z"/>
			<g id="Side_and_Jaw_8_">
				<g>
					<path d="M343.721,262.624c-1.035-10.469-2.634-15.892-2.702-16.116l-2.652,0.793c0.016,0.053,1.594,5.428,2.603,15.596
						c1.1,11.08-5.988,21.617-16.132,23.985c-4.997,1.169-7.718,0.864-10.869,0.511c-4.568-0.513-9.745-1.096-22.629,1.984
						c-10.377,2.479-15.897,6.375-20.771,9.813c-5.563,3.926-10.364,7.313-21.258,7.604c-13.319,0.368-18.775-3.165-24.044-6.564
						c-2.771-1.789-5.632-3.639-9.481-4.74c-6.224-1.776-11.111-1.57-16.29-1.352c-3.855,0.162-7.84,0.331-12.628-0.35
						c-16.799-2.395-32.203-20.758-32.326-38.523c-0.062-9.021,11.281-14.749,12.752-15.583c1.473-0.834,1.082-3.194-1.243-2.475
						c-0.903,0.279-3.271,1.451-5.823,3.405c-0.35-2.777,0.053-8.122,5.507-15.443c6.962-9.346,14.843-6.815,16.516-6.701
						c1.673,0.113,2.227-2.51,0.787-2.656c-0.666-0.067-3.155-0.763-6.442-0.41c-1.272-3.472-4.194-12.869-2.395-21.899
						c2.263-11.355,6.48-13.061,8.514-14.726c2.031-1.661,4.477-5.947,2.921-5.181c-2.437,1.201-3.307,3.525-4.247,3.913
						c-0.681,0.281-1.539,0.625-2.479,1.156c-0.901-0.813-5.356-5.199-5.244-12.363c0.124-7.966,4.523-13.333,4.523-13.333
						s0,0-1.477,0.093c0,0-6.278,5.817-5.632,13.572c0.554,6.65,4.964,11.773,6.214,13.104c-2.603,2.022-5.425,5.798-6.86,13.581
						c-1.52,8.254,1.991,18.867,3.389,22.624c-3.257,0.923-6.936,3.043-10.309,7.571c-7.104,9.535-6.444,16.372-5.692,19.155
						c-3.212,3.074-6.085,7.345-6.049,12.611c0.13,19.021,16.668,38.682,34.701,41.248c5.043,0.721,9.16,0.543,13.14,0.373
						c4.945-0.211,9.616-0.407,15.409,1.25c3.452,0.988,6.022,2.646,8.741,4.401c5.12,3.306,10.891,7.033,23.763,7.033
						c0.603,0,1.223-0.011,1.859-0.026c11.731-0.311,17.098-4.098,22.781-8.104c4.895-3.451,9.96-7.024,19.82-9.384
						c12.412-2.967,17.331-2.414,21.674-1.926c3.266,0.367,6.348,0.713,11.808-0.564
						C337.125,286.854,344.974,275.266,343.721,262.624z"/>
				</g>
			</g>
		</g>
		<path fill="#FFFFFF" d="M214.411,249.965c0,0,5.344,6.512,4.733,13.598s-2.094,19.513,15.915,24.989
			c18.009,5.478,25.447-1.466,38.212-15.784c12.43-13.94,18.959-18.689,18.959-18.689s-19.752,0.251-32.705-2.815
			c-12.953-3.066-19.927-10.367-26.174-8.032c-7.6,2.841-7.397,1.694-16.583,2.165L214.411,249.965z"/>
		<g id="Top_Snout_8_">
			<g>
				<path d="M315.855,196.253c-2.84,0.348-5.557,1.039-8.051,1.894c-0.434-0.208-6.393-2.855-20.584,0.736
					c-2.219,0.561-4.184,1.221-5.967,1.927c-0.813-0.061-4.406-0.23-9.201,1.059c-5.248,1.408-10.119,6.081-11.957,8.693
					c-1.41,2.002-2.281,1.799-3.339,3.298c-1.055,1.5,0.919,1.386,0.919,1.386c0.09-0.06,2.182-1.461,3.777-3.727
					c1.438-2.044,6.025-6.702,11.027-8.046c1.851-0.496,3.519-0.761,4.894-0.899c-6.908,3.605-9.521,7.654-9.683,7.889
					c0,0-1.229,3.406,0.855,1.046c1.717-1.946,4.161-5.781,12.706-9.031h0.004v-0.002c1.828-0.695,3.929-1.364,6.368-1.981
					c9.337-2.362,14.943-1.915,17.602-1.376c-5.578,2.299-9.582,5.224-10.361,6.416c-1.219,1.859,0,3.833,0,3.833
					s3.818-8.549,18.841-11.15c9.89-1.71,14.541,0.664,14.541,0.664l2.435-0.207C330.684,198.673,326.553,194.942,315.855,196.253z"
					/>
			</g>
		</g>
		<g id="Horn_x5F_left_8_">
			<path id="horn_fill_4_" fill="#FFFFFF" d="M223.519,245.76c3.694,7.57,14.404,22.161,34.532,15.143
				c20.129-7.02,32.869-67.399,32.869-67.399s-15.51,19.204-30.097,32.873c-14.589,13.667-22.9,17.54-22.9,17.54v-1.663
				c-4.541,0.918-3.782,2.07-8.1,2.593C225.505,245.368,223.519,245.76,223.519,245.76z"/>
			<path id="Horn_x5F_left_9_" d="M247.734,263.893c-15.216,0.002-22.934-12.975-25.209-17.646l1.991-0.973
				c2.559,5.241,12.506,21.785,33.169,14.582c16.14-5.627,27.668-47.925,31.097-62.028c-5.24,6.254-16.521,19.347-27.204,29.356
				c-14.535,13.62-23.396,18.174-23.767,18.362l-2.206,1.114l1.247-4.693l1.872,0.5c3.344-2.042,10.906-7.123,21.34-16.9
				c14.362-13.459,29.84-32.567,29.994-32.759l2.897-3.589l-0.954,4.513c-0.523,2.49-13.105,61.078-33.588,68.218
				C254.508,263.311,250.95,263.893,247.734,263.893z"/>
			<path d="M271.514,238.087c-4.234,7.652-8.14,13.758-15.064,17.222c-6.795,3.398-15.292,2.063-17.453,0.289
				c-1.771-1.451-1.972-2.369,0.798-1.521c2.77,0.848,8.017,2.364,15.511-1.353c8.504-4.22,13.946-13.515,15.123-15.178
				c1.176-1.661,2.051-5.444,2.932-5.945C274.305,231.065,272.204,236.839,271.514,238.087z"/>
		</g>
		<path id="Horn_x5F_right_4_" fill="#F8FAFB" stroke="#000000" stroke-width="2.2159" stroke-miterlimit="10" d="M328.324,197.847
			c0,0,5.577-2.583,8.705-7.18c3.126-4.597,6.132-11.402,6.132-11.402s1.224,7.847,0.55,12.629
			c-0.675,4.781-2.426,7.415-2.426,7.415s-1.788-0.661-5.851-0.635C331.372,198.699,328.324,197.847,328.324,197.847z"/>
		<g id="Left_Eye_4_">
			<g id="Eye_x5F_left_4_">
				<path d="M244.479,190.65c-8.73,0-15.835-7.062-15.835-15.743c0-4.969,2.401-9.703,6.424-12.663
					c0.555-0.407,1.155-0.614,1.784-0.614c1.561,0,2.885,1.23,4.29,2.531c0.896,0.834,1.822,1.692,2.755,2.16
					c1.832,0.917,3.877,1.342,6.438,1.342c1.071,0,2.117-0.074,3.039-0.138c0.8-0.057,1.558-0.11,2.233-0.11
					c0.883,0,2.951,0,3.645,1.808c0.705,1.846,1.063,3.756,1.063,5.684C260.313,183.588,253.209,190.65,244.479,190.65z
					 M236.852,163.57c-0.133,0-0.345,0.024-0.634,0.236c-3.529,2.596-5.634,6.747-5.634,11.101c0,7.612,6.233,13.805,13.895,13.805
					s13.896-6.193,13.896-13.805c0-1.688-0.314-3.368-0.936-4.99c-0.069-0.183-0.215-0.563-1.832-0.563
					c-0.608,0-1.332,0.051-2.104,0.105c-0.952,0.066-2.032,0.144-3.171,0.144c-2.873,0-5.193-0.493-7.302-1.548
					c-1.183-0.591-2.213-1.547-3.209-2.471C238.755,164.594,237.652,163.57,236.852,163.57z"/>
			</g>
			<path id="Pupil_x5F_left_9_" d="M237.923,178.394c0-5.523,4.506-10.001,10.063-10.001c5.56,0,11.265,2.622,11.265,8.145
				c0,5.524-5.705,11.858-11.265,11.858C242.43,188.396,237.923,183.918,237.923,178.394z"/>
			<path d="M270.423,160.135c0,0-3.713,7.84-15.694,7.146c-12.743-0.741-11.818-12.927-24.189-12.927
				c-11.632,0-16.988,5.781-16.988,5.781v7.188c0,0,6.647-4.292,16.063-1.89c9.419,2.4,8.128,9.474,21.237,9.474
				C270.423,174.907,270.423,160.135,270.423,160.135z"/>
			<path fill="#FFFFFF" d="M253.952,176.538c0,2.19-1.539,3.967-3.439,3.967c-1.899,0-3.439-1.777-3.439-3.967H253.952z"/>
		</g>
		<g id="Right_Eye_4_">
			<g id="Eye_x5F_right_4_">
				<path d="M298.77,190.65c-8.223,0-14.912-7.062-14.912-15.743c0-1.767,0.479-3.341,0.94-4.859
					c0.199-0.655,0.397-1.302,0.548-1.956c0.213-0.907,0.912-1.428,1.92-1.428c0.914,0,2.068,0.405,3.529,0.916
					c1.967,0.69,4.414,1.548,6.82,1.548c1.766,0,3.746-1.227,5.662-2.415c1.82-1.126,3.539-2.189,5.119-2.189
					c1.13,0,2.077,0.554,2.746,1.601c1.66,2.599,2.535,5.638,2.535,8.782C313.68,183.588,306.99,190.65,298.77,190.65z
					 M287.219,168.604c-0.164,0.682-0.363,1.341-0.566,2.005c-0.438,1.451-0.854,2.818-0.854,4.297
					c0,7.612,5.819,13.805,12.973,13.805c7.152,0,12.974-6.193,12.974-13.805c0-2.775-0.772-5.451-2.23-7.739
					c-0.395-0.62-0.782-0.704-1.111-0.704c-1.027,0-2.591,0.966-4.099,1.898c-2.048,1.268-4.367,2.704-6.686,2.704
					c-2.736,0-5.355-0.918-7.461-1.654c-1.188-0.417-2.305-0.808-2.889-0.808C287.249,168.603,287.23,168.604,287.219,168.604z"/>
			</g>
			<path id="Pupil_x5F_left_8_" d="M285.246,178.523c-2.122-7.97,0.967-11.15,11.306-10.13c5.735,0.568,10.917,2.673,10.435,10.551
				c-0.357,5.816-4.697,11.122-10.435,10.549C290.459,188.886,286.748,184.152,285.246,178.523z"/>
			<path d="M278.917,160.135c0,0,6.094,7.33,15.698,7.33c9.601,0,14.957-13.111,22.343-13.111c6.276,0,9.972,1.663,9.972,1.663v7.57
				c0,0-2.401-1.107-5.907-0.185c-3.51,0.922-11.435,11.277-24.471,10.896C283.52,173.916,278.917,160.135,278.917,160.135z"/>
			<path fill="#FFFFFF" d="M300.986,176.538c0,2.19-1.538,3.967-3.439,3.967c-1.9,0-3.438-1.777-3.438-3.967H300.986z"/>
		</g>
		<g id="NOSE_4_">
			<path id="nose_fill_4_" fill="#FAFBFB" d="M334.5,198.673c12.003,0,16.25,4.8,16.989,9.787c0.736,4.985,0.186,9.418,2.769,14.587
				c2.586,5.171,8.511,11.613,5.355,20.867c-5.539,16.25-13.481,5.144-25.298,4.986c-6.671-0.09-12.96,5.042-19.391,5.17
				c-6.276,0.123-12.253-2.068-13.479-8.864c-2.635-14.574,4.027-12.676,9.603-22.713c3.044-5.479,4.385-13.928,7.325-18.529
				C321.759,198.673,328.311,198.673,334.5,198.673z"/>
			<path id="nose_stroke_4_" fill="none" stroke="#000000" stroke-width="2.2159" stroke-miterlimit="10" d="M334.5,198.673
				c12.003,0,16.25,4.8,16.989,9.787c0.736,4.985,0.186,9.418,2.769,14.587c2.586,5.171,8.511,11.613,5.355,20.867
				c-5.539,16.25-13.481,5.144-25.298,4.986c-6.671-0.09-12.96,5.042-19.391,5.17c-6.276,0.123-12.253-2.068-13.479-8.864
				c-2.635-14.574,4.027-12.676,9.603-22.713c3.044-5.479,4.385-13.928,7.325-18.529C321.759,198.673,328.311,198.673,334.5,198.673
				z"/>
			<g id="NOSTRIL_9_">
				<path id="nostril_fill_9_" d="M343.175,218.718c0.395,1.08,0.905,2.133,1.597,3.037c2.907,3.808,4.664,5.701,5.89,9.51
					c1.176,3.662,1.231,11.309-3.813,12.025c-4.385,0.624-6.968-3.923-6.898-8.287c0.066-4.362,1.178-11.426,2.516-14.681
					C342.464,220.323,343.153,218.66,343.175,218.718z"/>
				<path id="nostril_stroke_9_" fill="none" stroke="#272525" stroke-width="1.108" stroke-miterlimit="10" d="M341.378,211.437
					c0.505-0.14,0.532,3.688,1.734,7.109c0.021,0.058,0.041,0.115,0.063,0.173c0.395,1.08,0.905,2.133,1.597,3.037
					c2.907,3.808,4.664,5.701,5.89,9.51c1.176,3.662,1.231,11.309-3.813,12.025c-4.385,0.624-6.968-3.923-6.898-8.287
					c0.066-4.362,1.178-11.426,2.516-14.681c0,0,0.06-1.442-0.289-3.035C341.828,215.695,340.754,211.609,341.378,211.437z"/>
			</g>
			<g id="NOSTRIL_8_">
				<path id="nostril_fill_8_" d="M324.612,218.798c-0.496,1.038-1.106,2.036-1.881,2.869c-3.265,3.512-5.19,5.228-6.773,8.902
					c-1.521,3.533-2.313,11.141,2.639,12.337c4.309,1.042,7.314-3.237,7.664-7.588c0.353-4.349-0.076-11.485-1.095-14.854
					C325.166,220.465,324.639,218.744,324.612,218.798z"/>
				<path id="nostril_stroke_8_" fill="none" stroke="#272525" stroke-width="1.108" stroke-miterlimit="10" d="M327.097,211.724
					c-0.487-0.188-0.882,3.619-2.404,6.909c-0.027,0.055-0.054,0.111-0.078,0.166c-0.496,1.038-1.106,2.036-1.881,2.869
					c-3.265,3.512-5.19,5.228-6.773,8.902c-1.521,3.533-2.313,11.141,2.639,12.337c4.309,1.042,7.314-3.237,7.664-7.588
					c0.353-4.349-0.076-11.485-1.095-14.854c0,0,0.08-1.442,0.577-2.994C326.241,215.919,327.702,211.954,327.097,211.724z"/>
			</g>
		</g>
		<path fill="#272525" d="M205.388,232.436c-0.887,5.082-4.143,9.163-9.471,11.793c3.569,1.217,7.321-1.987,8.805-4.508
			c0.601-1.021,1.698-2.076,2.102-3.158c0.449-1.215,1.042-2.955,0.919-3.958c-0.123-1.001-0.896-1.188-1.405-1.164
			C205.832,231.465,205.388,232.436,205.388,232.436z"/>
		<g id="Mouth_8_">
			<g>
				<path d="M304.809,251.181l0.11,0.105C304.919,251.286,304.971,251.217,304.809,251.181z M303.583,248.727
					c-0.229,0.018-1.526,0.189-6.707,1.873c-3.575,0.938-6.578,2.589-10.647,2.589c-6.016,0-7.701-0.651-11.211-0.856
					c-3.828-0.223-6.652,0-6.652,0l-0.954,1.213c0,0,2.394,0,7.261,0.53c4.868,0.531,4.628,1.583,11.451,1.382
					c0.468-0.015,0.896-0.035,1.314-0.06c-3.174,2.524-6.262,5.881-9.677,9.748c-2.538,1.336-7.206,3.606-10.882,4.336
					c-6.107,1.213-15.754-0.063-15.884,1.416c-0.13,1.479,4.458,2.658,9.923,2.725c4.184,0.048,8.074-0.581,9.249,0.122
					c-0.72,0.833-1.419,1.655-2.099,2.461c-7.228,8.545-12.444,14.721-28.513,12.242c-4.667-0.72-8.441-2.091-11.361-4.119
					c-1.269-1.172-2.782-2.606-4.13-4.077c-2.138-3.061-3.233-6.941-3.329-11.654c0.296-1.521,0.779-2.711,1.399-3.089
					c1.384-0.841,5.541,2.228,12.047,3.749c6.512,1.524,3.741-1.938-0.831-3.186c-3.74-1.02-9.52-5.842-12.938-8.885
					c-0.268-4.8-0.638-9.243-0.802-11.113c1.071,0.141,2.586,0.283,4.389,0.283c1.623,0,3.476-0.116,5.417-0.453
					c3.346-0.58,4.638-1.285,5.581-1.799c0.74-0.401,1.121-0.602,2.298-0.6c3.186-0.015,4.21-0.628,4.452-0.824l-1.169-1.544
					c-0.006,0.005-0.759,0.413-3.274,0.429c-1.69,0.007-2.404,0.384-3.235,0.837c-0.871,0.475-1.953,1.066-4.985,1.591
					c-4.616,0.801-8.765,0.252-10.199,0.01c-0.847-1.379-2.49-0.519-2.767-0.359c1.318-4.396,0.347-8.041-0.171-9.563
					c-0.776-2.287-0.947-4.202-1.615-2.488c-0.672,1.714,1.204,7.893-4.756,16.385c-6.28,8.951-13.729,9.053-13.729,9.053
					s0,1.19,0.84,1.655c0.867,0.481,6.734-1.188,11.809-4.894c1.955,1.526,7.283,5.95,9.204,10.203
					c0.087,0.19,0.163,0.379,0.229,0.563c0.018,1.014,0.023,1.986,0.012,2.896c-0.171,13.358,7.157,21.565,21.19,23.729
					c2.609,0.402,4.961,0.592,7.101,0.592c12.292,0,17.547-6.215,23.95-13.783c1.217-1.438,2.475-2.928,3.84-4.438
					c1.441-1.604,2.81-3.16,4.117-4.65c6.334-7.206,11.331-12.896,17.172-14.867c6.91-2.333,8.457-2.544,8.479-2.548l-0.021-0.269
					c0.604-0.075,0.898-0.069,1.036-0.038l-1.12-1.071L303.583,248.727z"/>
			</g>
		</g>
		<g id="Shadows_4_">
			<path d="M307.725,124.44c0,0,4.864-2.931,11.024-6.384c6.093-3.415,8.827-11.067,9.934-10.79
				c1.107,0.277-2.956,8.954-4.248,10.248c-1.292,1.293-0.848-1.015-0.848-1.015s0.107,3.134-5.891,5.817
				c-5.185,2.318-8.166,2.849-9.974,3.693C306.587,126.542,306.147,124.879,307.725,124.44z"/>
			<path d="M185.51,185.321c-1.589,0.715-3.514,0.636-4.821,1.918c-1.197,1.174-2.048,3.244-2.353,4.858
				c-0.607,3.231,0.034,6.676,0.894,9.793c0.531,1.928,0.798,3.629,1.789,5.493c0.612,1.152,0.824,2.276,1.131,3.438
				c0.658-1.767,0.152-4.307,0.431-6.289c0.27-1.909,1.249-3.554,1.615-5.4c0.373,1.258,0.169,2.854,0.118,4.156
				c-0.1,2.557,0.299,4.471,1.91,6.58c0.07-1.302-1.442-6.128-0.109-6.774c1.359,5.157,1.086,10.351,5.243,14.457
				c1.791,1.769,1.812-0.063,1.077-1.468c-1.26-2.416-2.109-4.564-2.239-7.352c-0.246-5.241,0.089-11.357,2.088-16.185
				c1.504-3.628,4.269-6.996,6.084-10.482c1.425-2.736-0.257-6.928-0.742-6.859c-0.487,0.068-0.349,2.974-0.009,4.638
				c0.094,0.457-0.784,0.58-0.935,0.417c-0.383-0.41-0.403-1.151-0.443-1.683c-0.097-1.28,0.152-2.541,0.258-3.811
				c0.169-1.97-1.159-4.913-2.201-6.693c-0.868-1.485-1.521-2.051-2.179-0.191c-0.521,1.476-1.17,3.356-1.331,4.88
				c-0.284,2.693,1.169,3.992-0.299,6.494C189.143,181.548,188.121,184.151,185.51,185.321z"/>
			<path d="M186.981,150.063c-1.591,1.931-4.025,4.872-4.249,7.467c-0.15,1.74,0.593,9.454,3.635,5.315
				c0.048,1.287-0.019,2.464,1.234,3.032c0.97,0.44,1.166-0.085,1.719,0.738c0.284,0.42,0.076,0.981,0.294,1.462
				c0.586,1.304,2.163,1.88,3.045,2.953c0.61,0.745,0.851,2.033,1.797,2.331c0.817-1.131,0.861-3.281,1.048-4.529
				c0.224-1.493-0.244-2.314-0.911-3.661c-0.606-1.23-1.408-2.577-0.587-3.99c0.738-1.28,2.481-2.049,2.03-3.927
				c-1.375-0.065-3.514,0.839-4.478,0.394c-0.713-0.331-1.123-1.81-1.493-2.313c-0.785-1.063-0.725-0.74-2.174-0.747
				c-0.896-1.512,0.092-3.425-0.764-4.821L186.981,150.063z"/>
			<path d="M170.345,268.868c1.188,3.896,3.735,6.039,6.632,8.63c3.33,2.977,6.713,3.02,10.945,3.83
				c0.913,0.175,7.242,3.773,7.789,2.965c0.509-0.751-1.892-1.423-2.316-1.714c-1.637-1.114-2.717-3.249-3.651-4.96
				c-1.761-3.223-4.084-6.604-7.226-8.707c-2.833-1.896-5.828-4.307-7.345-7.527c-1.167-2.477-0.504-5.389-1.337-7.908
				c-1.035-0.028-1.434,2.699-1.792,3.633c-0.438-2.314,0.083-4.794,0.111-7.173c0.024-2.237,0.435-4.134,1.31-6.14
				c-1.563-0.924-2.772,1.863-3.22,2.885c-0.955,2.172-1.083,3.997-0.95,6.369c0.116,2.111-0.289,4.144-0.342,6.242
				C168.875,262.504,169.412,265.803,170.345,268.868z"/>
			<path d="M168.612,227.321c-1.386,1.705-2.317,3-3,5.073c0.34-0.897,2.175-2.319,3.054-2.939c1.54-1.085,3.353-0.994,5.006-1.693
				c-1.216,1.875-2.279,3.78-2.489,5.93c0.926,0.188,1.438-0.672,2.237-0.957c-0.755,1.929-1.297,3.292-0.979,5.417
				c0.528,3.521,1.993-1.43,2.379-2.587c1.115-3.338,5.3-3.238,7.946-4.805c-1.916-0.169-4.893-1.092-5.496-3.15
				c-0.284-0.965,0.229-1.979,0.68-2.845c0.42-0.813,1.476-1.145,1.538-2.09c-1.416-0.186-3.818,0.646-5.345,0.885
				C171.396,223.99,170.252,225.301,168.612,227.321z"/>
			<path d="M322.127,257.578c-2.727-4.997-4.107,4.247-4.504,5.172c-1.285,2.99-4.804,6.285-7.313,8.134
				c-2.752,2.026-19.669,11.409-17.956,14.349c3.229-0.51,4.9-1.668,7.627-3.104c2.842-1.497,5.309-1.281,8.565-1.281
				c5.271,0,11.124,1.353,13.97-3.962c-0.021,1.406-0.02,2.813-0.023,4.218c1.231-4.076,13.397-16.523,3.381-17.67
				c0.702-2.897,2.788-4.451,2.85-8.016c-2.092-0.486-3.438,0.676-4.744,2.16H322.127L322.127,257.578z"/>
			<path d="M299.83,209.974c-2.758,2.156-6.959,5.106-7.598,8.613c0.939,0.212,1.86-0.254,2.73-0.502
				c-0.995,1.888-2.845,3.385-4.084,5.198c-1.363,1.996-2.829,4.662-3.455,6.902c1.229,0.178,2.105-1.185,2.924-1.737
				c-0.305,1.501-1.318,2.518-1.062,4.177c0.896-0.112,1.397-0.962,2.343-0.875c0.186,1.474-1.262,3.008-1.955,4.217
				c-0.643,1.123-0.682,3.216-1.316,4.026c-0.926,1.179-2.715,0.728-3.396,2.434c-0.511,1.278,0.041,2.89,0.409,4.047
				c1.991-0.347,2.526-3.339,3.465-4.59c1.039-1.394,2.651-1.661,4.076-2.587c1.491-0.971,2.157-1.808,2.298-3.652
				c0.113-1.472-0.475-3.55,0.268-4.883c0.853-1.526,3.034-2.635,4.16-3.971c1.113-1.323,1.991-2.854,3.016-4.307
				c2.054-2.912,2.758-6.166,4.299-9.361c0.955-1.981,3.78-3.499,4.26-5.546c-0.62-0.301-1.324-0.324-1.99-0.111
				c0.932-0.296,2.503-3.558,2.73-4.472c-2.453-0.649-3.535,1.03-5.164,2.457C304.693,207.288,302.01,208.268,299.83,209.974z"/>
			<path d="M247.895,132.856c1.683-0.565,3.797-1.02,5.525-1.345c5.725-1.077,12.557-0.636,18.516-0.345
				c12.424,0.604,23.869,6.224,33.199,14.429c-1.419-0.023-2.859-0.051-4.259,0.043c2.146,1.682,2.937,2.438,3.498,5.17
				c-1.867-0.619-3.507-3.217-5.878-4.071c-2.883-1.038-6.354-1.217-9.114-2.734c-2.215-1.217-3.926-3.11-6.323-3.982
				c-1.887-0.687-4.371-1.109-6.47-1.718c-8.573-2.486-15.868-3.602-25.064-2.969c-2.099,0.145-4.221,0.025-6.304,0.345
				c-2.75,0.424-4.92,3.225-7.81,2.661c-0.025-0.355-0.023-0.666,0-1.018C237.51,135.938,246.675,133.268,247.895,132.856z"/>
			<path d="M313.084,103.116c-1.213,0.594-2.188,1.316-3.552,1.763c-2.19,0.718-3.377,2.267-4.998,3.907
				c-1.544,1.565-3.827,2.738-5.118,4.527c-0.628,0.871-0.307,1.587-0.305,2.632c0.004,0.962-0.666,1.777-0.635,2.689
				c0.073,2.466,3.035,0.62,4.053-0.025c1.878-1.193,4.04-1.262,6.006-2.12c2.271-0.991,4.505-2.108,6.553-3.521
				c1.038-0.716,2.723-1.021,3.56-1.984c0.65-0.757,1.273-1.86,1.854-2.718c1.42-2.095,3.258-3.577,5.477-4.838
				c-0.937-0.497-3.029,1.146-4.117,1.345c-0.578,0.105-1.345,0.335-1.89,0.027c-0.597-0.338-0.723-1.285-1.284-1.69
				C317.438,102.214,314.395,102.472,313.084,103.116z"/>
			<path d="M339.524,96.188c0.505-0.615,1.89-0.96,2.583-1.316c0.883-0.449,2.086-0.876,2.803-1.57
				c0.742-0.717,0.756-1.447,1.75-1.931c1.889-0.921,3.678-0.58,5.646-0.981c1.954-0.4,3.604-0.983,5.479-1.563
				c0.096,2.129-1.228,3.967-1.893,5.93c-0.769,2.279-0.91,4.834-1.459,7.198c-0.648,2.803-1.301,5.696-3.498,7.831
				c-1.854,1.801-3.68,3.691-5.336,5.726c-0.528,0.654-1.979,3.517-3.109,3.011c-0.772-0.345,0.271-1.066,0.613-1.369
				c0.89-0.79,1.63-1.375,2.14-2.489c0.616-1.35,0.768-2.867,1.758-4.032c1.084-1.279,2.239-2.453,2.871-4.04
				c0.574-1.443,1.578-4.122-0.8-4.002c-0.06-1.183,0.108-1.49-0.748-2.251c-0.646-0.574-1.633-1.194-2.522-1.437
				c-0.771-0.208-1.647,0.023-2.465-0.108C342.441,98.649,338.602,97.316,339.524,96.188z"/>
			<path d="M231.206,225.494c-0.709-0.015-1.606,0.379-2.323,0.497c-0.527,0.087-1.213,0.21-1.642,0.524
				c-1.207,0.887,1.131,0.995,1.74,1.135c0.035,0.314-0.233,0.612-0.337,0.89c-0.131,0.355-0.006,0.438-0.276,0.742
				c-0.417,0.47-1.444,0.766-2.023,0.978c-0.297,0.107-1.985,0.271-1.934,0.757c0.056,0.552,2.165,0.362,2.585,0.362
				c-0.403,0.253-3.458,1.853-2.607,2.548c0.753,0.615,2.181-0.446,2.738-0.872c1.1-0.839,2.678-0.839,3.893-1.592
				c0.54-0.337,1.104-0.749,1.73-0.641c0.914,0.158,1.713,0.776,2.79,0.472c1.595-0.449,2.972-2.145,3.915-3.406
				c0.422-0.564,0.93-0.976,1.166-1.627c-0.458,0.065-0.873,0.528-1.282,0.737c-0.701,0.355-1.504,0.659-2.242,0.921
				c-0.978,0.349-1.808,0.492-2.856,0.483c-1.43-0.012-3.56-1.117-2.409-2.702L231.206,225.494z"/>
			<path d="M147.234,106.126c2.587,2.835,1.632,8.407,1.473,11.919c-0.198,4.28,2.611,16.045,7.125,21.529
				c6.282,7.63,15.198,8.142,20.248,5.872c2.717-1.22-2.369-0.936-4.327-1.697c-1.569-0.61-4.778-1.574-5.999-2.236
				c-3.689-2.001-7.466-3.22-9.833-9.888c-2.369-6.668-3.691-9.078-3.589-11.722c0.085-2.218-0.461-6.559-1.148-8.567
				c-0.859-2.515-1.736-4.658-3.655-6.711L147.234,106.126z"/>
		</g>
	</g>
	<g id="Text_x2F_highlights">
		<g id="Text">
			<path d="M228.914,401.769c-4.885,0-10.246-2.857-10.246-10.723c0-5.838,0.953-13.104,1.906-21.207
				c-5.242,0.356-12.986,0.834-21.922,0.953c-0.715,6.313-1.191,12.392-1.191,16.918c0,7.863,0.953,8.938,0.953,10.127
				c0,2.146-3.098,3.574-6.195,3.574c-4.051,0-9.293-2.502-9.293-10.365c0-10.961,3.455-26.092,3.455-44.438
				c0-9.889-1.191-13.582-1.191-15.368c0-1.312,1.43-2.146,3.813-2.146c8.459,0,13.344,4.646,13.344,10.245
				c0,4.527-1.43,13.939-2.621,23.828c10.008-0.596,17.395-1.549,21.684-2.264c0.357-4.527,0.715-9.294,0.715-14.298
				c0-9.89-1.191-13.582-1.191-15.368c0-1.313,1.43-2.146,3.813-2.146c8.459,0,13.582,4.527,13.582,10.128
				c0,8.459-5.123,34.788-5.123,48.489c0,7.863,2.621,8.938,2.621,10.127C235.824,400.577,231.178,401.769,228.914,401.769z"/>
			<path d="M267.869,356.732c0.238-0.119,0.596-0.119,0.953-0.119c6.434,0,9.293,5.479,9.77,14.654h1.43
				c5.957,0,10.008-3.813,11.199-7.981c1.313,0.478,2.383,1.668,2.383,4.051c0,6.672-7.744,10.365-15.25,10.483
				c-1.311,13.464-8.814,22.995-19.896,22.995c-9.77,0-16.68-7.27-16.68-18.706c0-13.819,9.531-26.567,20.85-26.567
				C264.533,355.542,266.32,355.898,267.869,356.732z M268.941,376.152c-4.768-2.146-7.148-5.957-7.148-10.604
				c0-1.071,0.119-2.264,0.596-3.455h-0.238c-4.051,0-7.98,9.771-7.98,18.943c0,6.672,2.383,11.914,6.313,11.914
				C265.844,392.952,268.822,384.374,268.941,376.152z"/>
			<path d="M318.381,385.089c0.238,2.265,0.596,5.72,0.596,9.771c0,12.63-3.336,30.382-22.756,30.382
				c-8.34,0-15.131-4.17-15.131-10.961c0-6.436,4.527-8.459,8.221-8.459c2.502,0,4.646,0.953,4.646,2.145
				c0,0.479-0.715,1.313-0.715,3.813c0,3.572,1.787,7.146,6.195,7.146c7.387,0,8.576-12.15,8.576-22.16v-0.596
				c-2.857,2.74-6.553,4.646-10.482,4.646c-6.553,0-13.82-4.289-13.82-15.965c0-14.535,9.412-29.311,22.398-29.311
				c6.908,0,12.031,4.408,12.031,9.771c0,1.311-0.236,2.383-0.477,3.336c1.549,0.355,2.859,1.43,2.859,4.17
				c0,4.766-1.072,7.506-2.266,11.676C318.262,384.73,318.381,384.852,318.381,385.089z M308.73,375.2h-0.953
				c-2.146,0-3.932-0.597-3.932-2.025c0-1.549,2.145-3.932,2.145-7.625c0-1.668-0.834-2.858-2.145-2.858
				c-4.646,0-8.697,9.89-8.697,18.108c0,5.601,1.668,11.199,5.359,11.199C304.322,391.999,308.016,386.757,308.73,375.2z"/>
		</g>
		<g id="highlights">
			<path fill="#FFFFFF" d="M200.201,339.221c0,7.028-1.191,15.131-1.191,15.131s-0.119-12.748-0.834-15.131
				c-0.953-3.337-2.264-5.957-8.816-8.459C196.15,331.236,200.201,335.169,200.201,339.221z M235.586,339.221
				c0,7.028-1.191,15.131-1.191,15.131s-0.119-12.748-0.834-15.131c-0.953-3.337-2.264-5.957-8.816-8.459
				C231.535,331.236,235.586,335.169,235.586,339.221z"/>
			<path fill="#FFFFFF" d="M261.793,356.614c0,0,3.455,0.237,4.408,1.071c-0.715,0.478-1.311,1.19-1.311,1.19
				C264.176,357.925,262.984,357.091,261.793,356.614z M275.494,371.148c-1.43-11.676-7.625-12.748-7.625-12.748
				s0.477-0.118,0.953-0.118c3.813,0,7.982,4.288,7.982,12.985L275.494,371.148z"/>
			<path fill="#FFFFFF" d="M289.43,407.011c2.146,0,2.74,0.479,2.74,1.549c0,0.834-0.357,2.025-0.357,3.693
				c0,3.098,1.432,4.885,1.432,4.885s-2.621-1.787-2.621-5.359c0-3.336-1.072-3.813-3.455-3.813c-0.598,0-1.313,0.119-2.146,0.357
				C285.021,408.321,286.689,407.011,289.43,407.011z M306.467,357.091c5.361,0,9.65,2.979,9.65,7.388
				c0,1.312-0.596,3.573-0.596,3.336c0-5.719-5.123-9.771-11.676-9.771c-2.146,0-4.053,0.356-4.053,0.356
				S302.654,357.091,306.467,357.091z"/>
		</g>
	</g>
</g>
</svg>
